<?xml version="1.0" encoding="UTF-8" standalone="no"?>
<!DOCTYPE svg PUBLIC "-//W3C//DTD SVG 1.1//EN" "http://www.w3.org/Graphics/SVG/1.1/DTD/svg11.dtd">
<svg width="100%" height="100%" viewBox="0 0 512 512" version="1.1" xmlns="http://www.w3.org/2000/svg" xmlns:xlink="http://www.w3.org/1999/xlink" xml:space="preserve" xmlns:serif="http://www.serif.com/" style="fill-rule:evenodd;clip-rule:evenodd;stroke-linejoin:round;stroke-miterlimit:2;">
    <path d="M429.008,498.162L83.027,498.162C79.231,498.162 76.108,495.039 76.108,491.243L76.108,20.757C76.108,16.961 79.231,13.838 83.027,13.838L318.339,13.838C320.173,13.836 321.933,14.564 323.231,15.858L433.934,126.499C435.231,127.795 435.961,129.556 435.961,131.39L435.961,491.243C435.961,495.039 432.838,498.162 429.042,498.162C429.031,498.162 429.019,498.162 429.008,498.162ZM89.946,484.324L422.123,484.324L422.123,134.262L315.44,27.676L89.946,27.676L89.946,484.324Z" style="fill:white;fill-rule:nonzero;"/>
    <path d="M429.008,138.448L318.305,138.448C314.509,138.448 311.386,135.324 311.386,131.529L311.386,20.757C311.386,16.961 314.509,13.838 318.305,13.838C322.1,13.838 325.224,16.961 325.224,20.757L325.224,124.61L429.008,124.61C432.803,124.61 435.926,127.733 435.926,131.529C435.926,135.324 432.803,138.448 429.008,138.448Z" style="fill:white;fill-rule:nonzero;"/>
    <path d="M380.541,261.189L131.494,261.189C127.698,261.189 124.575,258.066 124.575,254.27C124.575,250.475 127.698,247.351 131.494,247.351L380.541,247.351C384.336,247.351 387.459,250.475 387.459,254.27C387.459,258.066 384.336,261.189 380.541,261.189Z" style="fill:white;fill-rule:nonzero;"/>
    <path d="M380.541,206.419L131.494,206.419C127.698,206.419 124.575,203.296 124.575,199.5C124.575,195.705 127.698,192.581 131.494,192.581L380.541,192.581C384.336,192.581 387.459,195.705 387.459,199.5C387.459,203.296 384.336,206.419 380.541,206.419Z" style="fill:white;fill-rule:nonzero;"/>
    <path d="M276.757,151.656L131.494,151.656C127.698,151.656 124.575,148.532 124.575,144.737C124.575,140.941 127.698,137.818 131.494,137.818L276.757,137.818C280.552,137.818 283.676,140.941 283.676,144.737C283.676,148.532 280.552,151.656 276.757,151.656Z" style="fill:white;fill-rule:nonzero;"/>
    <path d="M276.757,96.865L131.494,96.865C127.698,96.865 124.575,93.742 124.575,89.946C124.575,86.15 127.698,83.027 131.494,83.027L276.757,83.027C280.552,83.027 283.676,86.15 283.676,89.946C283.676,93.742 280.552,96.865 276.757,96.865Z" style="fill:white;fill-rule:nonzero;"/>
    <path d="M256,445.98C215.831,445.98 182.777,412.926 182.777,372.757C182.777,332.588 215.831,299.534 256,299.534C296.169,299.534 329.223,332.588 329.223,372.757C329.181,412.91 296.153,445.938 256,445.98ZM256,313.372C223.422,313.372 196.615,340.179 196.615,372.757C196.615,405.334 223.422,432.142 256,432.142C288.578,432.142 315.385,405.334 315.385,372.757C315.351,340.192 288.565,313.406 256,313.372Z" style="fill:white;fill-rule:nonzero;"/>
    <path d="M243.677,400.218C241.843,400.218 240.082,399.488 238.786,398.191L222.353,381.758C221.108,380.469 220.411,378.744 220.411,376.952C220.411,373.156 223.534,370.033 227.33,370.033C229.123,370.033 230.847,370.729 232.137,371.975L243.677,383.516L279.863,347.323C281.153,346.077 282.877,345.381 284.67,345.381C288.466,345.381 291.589,348.504 291.589,352.3C291.589,354.092 290.892,355.817 289.647,357.106L248.569,398.191C247.272,399.488 245.512,400.218 243.677,400.218Z" style="fill:white;fill-rule:nonzero;"/>
</svg>
