<?xml version="1.0" encoding="UTF-8" standalone="no"?>
<!DOCTYPE svg PUBLIC "-//W3C//DTD SVG 1.1//EN" "http://www.w3.org/Graphics/SVG/1.1/DTD/svg11.dtd">
<svg width="100%" height="100%" viewBox="0 0 512 512" version="1.1" xmlns="http://www.w3.org/2000/svg" xmlns:xlink="http://www.w3.org/1999/xlink" xml:space="preserve" xmlns:serif="http://www.serif.com/" style="fill-rule:evenodd;clip-rule:evenodd;stroke-linejoin:round;stroke-miterlimit:2;">
    <path d="M76.177,394.032C72.382,394.032 69.258,390.909 69.258,387.114L69.258,366.979C69.258,363.184 72.382,360.061 76.177,360.061C79.973,360.061 83.096,363.184 83.096,366.979L83.096,387.114C83.096,390.909 79.973,394.032 76.177,394.032Z" style="fill:white;fill-rule:nonzero;"/>
    <path d="M435.823,498.162L76.177,498.162C72.382,498.162 69.258,495.039 69.258,491.243L69.258,435.546C69.258,431.75 72.382,428.627 76.177,428.627C79.973,428.627 83.096,431.75 83.096,435.546L83.096,484.324L428.904,484.324L428.904,130.864L325.715,27.676L83.096,27.676L83.096,249.565C83.096,253.361 79.973,256.484 76.177,256.484C72.382,256.484 69.258,253.361 69.258,249.565L69.258,20.757C69.258,16.961 72.382,13.838 76.177,13.838L328.579,13.838C330.414,13.838 332.174,14.568 333.471,15.865L440.714,123.108C442.012,124.405 442.741,126.166 442.742,128L442.742,491.243C442.742,495.039 439.618,498.162 435.823,498.162Z" style="fill:white;fill-rule:nonzero;"/>
    <path d="M76.177,325.466C72.382,325.466 69.258,322.343 69.258,318.547L69.258,297.998C69.258,294.202 72.382,291.079 76.177,291.079C79.973,291.079 83.096,294.202 83.096,297.998L83.096,318.547C83.096,322.343 79.973,325.466 76.177,325.466Z" style="fill:white;fill-rule:nonzero;"/>
    <path d="M435.823,134.919L328.579,134.919C324.784,134.919 321.661,131.796 321.661,128L321.661,20.757C321.661,16.961 324.784,13.838 328.579,13.838C332.375,13.838 335.498,16.961 335.498,20.757L335.498,121.081L435.823,121.081C439.618,121.081 442.742,124.204 442.742,128C442.742,131.796 439.618,134.919 435.823,134.919Z" style="fill:white;fill-rule:nonzero;"/>
    <path d="M198.289,139.928C179.799,140.647 163.961,126.101 163.107,107.617C163.965,89.135 179.802,74.594 198.289,75.312C216.779,74.59 232.621,89.132 233.479,107.617C233.479,111.412 230.356,114.536 226.56,114.536C222.764,114.536 219.641,111.412 219.641,107.617C218.795,96.72 209.194,88.417 198.289,89.15C187.387,88.42 177.79,96.723 176.944,107.617C177.787,118.513 187.385,126.82 198.289,126.09C202.085,126.09 205.208,129.214 205.208,133.009C205.208,136.805 202.085,139.928 198.289,139.928Z" style="fill:white;fill-rule:nonzero;"/>
    <path d="M198.289,190.699C179.802,191.418 163.965,176.876 163.107,158.395C163.107,154.599 166.23,151.476 170.026,151.476C173.821,151.476 176.944,154.599 176.944,158.395C177.79,169.289 187.387,177.591 198.289,176.861C209.194,177.595 218.795,169.291 219.641,158.395C218.795,147.498 209.194,139.194 198.289,139.928C194.494,139.928 191.37,136.805 191.37,133.009C191.37,129.214 194.494,126.09 198.289,126.09C216.779,125.368 232.621,139.91 233.479,158.395C232.621,176.879 216.779,191.422 198.289,190.699Z" style="fill:white;fill-rule:nonzero;"/>
    <path d="M198.289,203.534C194.494,203.534 191.37,200.411 191.37,196.615L191.37,183.801C191.37,180.005 194.494,176.882 198.289,176.882C202.085,176.882 205.208,180.005 205.208,183.801L205.208,196.615C205.208,200.411 202.085,203.534 198.289,203.534Z" style="fill:white;fill-rule:nonzero;"/>
    <path d="M198.289,89.185C194.494,89.185 191.37,86.062 191.37,82.266L191.37,69.39C191.37,65.594 194.494,62.471 198.289,62.471C202.085,62.471 205.208,65.594 205.208,69.39L205.208,82.266C205.208,86.062 202.085,89.185 198.289,89.185Z" style="fill:white;fill-rule:nonzero;"/>
    <path d="M387.397,276.819L124.603,276.819C120.807,276.819 117.684,273.696 117.684,269.9C117.684,266.105 120.807,262.981 124.603,262.981L387.397,262.981C391.193,262.981 394.316,266.105 394.316,269.9C394.316,273.696 391.193,276.819 387.397,276.819Z" style="fill:white;fill-rule:nonzero;"/>
    <path d="M387.397,349.468L124.603,349.468C120.807,349.468 117.684,346.344 117.684,342.549C117.684,338.753 120.807,335.63 124.603,335.63L387.397,335.63C391.193,335.63 394.316,338.753 394.316,342.549C394.316,346.344 391.193,349.468 387.397,349.468Z" style="fill:white;fill-rule:nonzero;"/>
    <path d="M387.397,422.116L124.603,422.116C120.807,422.116 117.684,418.993 117.684,415.197C117.684,411.402 120.807,408.278 124.603,408.278L387.397,408.278C391.193,408.278 394.316,411.402 394.316,415.197C394.316,418.993 391.193,422.116 387.397,422.116Z" style="fill:white;fill-rule:nonzero;"/>
</svg>
