<?xml version="1.0" encoding="UTF-8" standalone="no"?>
<!DOCTYPE svg PUBLIC "-//W3C//DTD SVG 1.1//EN" "http://www.w3.org/Graphics/SVG/1.1/DTD/svg11.dtd">
<svg width="100%" height="100%" viewBox="0 0 512 512" version="1.1" xmlns="http://www.w3.org/2000/svg" xmlns:xlink="http://www.w3.org/1999/xlink" xml:space="preserve" xmlns:serif="http://www.serif.com/" style="fill-rule:evenodd;clip-rule:evenodd;stroke-linejoin:round;stroke-miterlimit:2;">
    <path d="M20.757,207.568C20.757,207.568 20.756,207.568 20.756,207.568C16.961,207.568 13.837,204.444 13.837,200.649C13.837,198.497 14.841,196.463 16.55,195.155L99.577,131.632C100.765,130.758 102.203,130.286 103.678,130.286C107.474,130.286 110.597,133.409 110.597,137.205C110.597,139.316 109.631,141.315 107.977,142.627L24.95,206.142C23.749,207.069 22.273,207.57 20.757,207.568Z" style="fill:white;fill-rule:nonzero;"/>
    <path d="M491.243,498.162L20.757,498.162C16.961,498.162 13.838,495.039 13.838,491.243L13.838,200.649C13.838,196.853 16.961,193.73 20.757,193.73C24.552,193.73 27.676,196.853 27.676,200.649L27.676,484.324L484.324,484.324L484.324,200.649C484.324,196.853 487.448,193.73 491.243,193.73C495.039,193.73 498.162,196.853 498.162,200.649L498.162,491.243C498.162,495.039 495.039,498.162 491.243,498.162Z" style="fill:white;fill-rule:nonzero;"/>
    <path d="M256,372.307C231.695,372.339 208.123,363.903 189.357,348.458L16.384,205.99C14.789,204.676 13.864,202.715 13.864,200.649C13.864,196.852 16.988,193.728 20.784,193.728C22.39,193.728 23.946,194.287 25.185,195.307L198.158,337.775C231.648,365.28 280.352,365.28 313.842,337.775L486.815,195.307C488.054,194.287 489.61,193.728 491.216,193.728C495.012,193.728 498.136,196.852 498.136,200.649C498.136,202.715 497.211,204.676 495.616,205.99L322.643,348.458C303.877,363.903 280.305,372.339 256,372.307Z" style="fill:white;fill-rule:nonzero;"/>
    <path d="M491.243,498.162C489.641,498.161 488.087,497.603 486.85,496.585L310.417,351.287C308.823,349.974 307.897,348.012 307.897,345.946C307.897,342.149 311.021,339.025 314.818,339.025C316.423,339.025 317.979,339.584 319.218,340.605L495.651,485.902C497.246,487.215 498.172,489.177 498.172,491.243C498.172,495.039 495.048,498.162 491.253,498.162C491.25,498.162 491.246,498.162 491.243,498.162Z" style="fill:white;fill-rule:nonzero;"/>
    <path d="M20.757,498.162C20.754,498.162 20.75,498.162 20.747,498.162C16.952,498.162 13.828,495.039 13.828,491.243C13.828,489.177 14.754,487.215 16.349,485.902L192.782,340.605C194.021,339.584 195.577,339.025 197.182,339.025C200.979,339.025 204.103,342.149 204.103,345.946C204.103,348.012 203.177,349.974 201.583,351.287L25.15,496.585C23.913,497.603 22.359,498.161 20.757,498.162Z" style="fill:white;fill-rule:nonzero;"/>
    <path d="M334.454,87.663C332.935,87.661 331.459,87.16 330.254,86.237L256,29.468L181.746,86.237C180.539,87.16 179.062,87.66 177.543,87.66C173.747,87.66 170.623,84.536 170.623,80.74C170.623,78.586 171.629,76.552 173.34,75.243L251.8,15.263C254.272,13.375 257.728,13.375 260.2,15.263L338.66,75.243C340.401,76.549 341.428,78.602 341.428,80.779C341.428,84.574 338.305,87.698 334.509,87.698C334.491,87.698 334.472,87.697 334.454,87.697L334.454,87.663Z" style="fill:white;fill-rule:nonzero;"/>
    <path d="M491.243,207.568C489.727,207.57 488.251,207.069 487.05,206.142L404.023,142.627C402.369,141.315 401.403,139.316 401.403,137.205C401.403,133.409 404.526,130.286 408.322,130.286C409.797,130.286 411.235,130.758 412.423,131.632L495.45,195.155C497.159,196.463 498.163,198.497 498.163,200.649C498.163,204.444 495.039,207.568 491.244,207.568C491.244,207.568 491.243,207.568 491.243,207.568Z" style="fill:white;fill-rule:nonzero;"/>
    <path d="M408.216,275.926C404.421,275.926 401.297,272.803 401.297,269.008L401.297,87.663L110.703,87.663L110.703,269.008C110.703,272.803 107.579,275.926 103.784,275.926C99.988,275.926 96.865,272.803 96.865,269.008L96.865,80.744C96.865,76.948 99.988,73.825 103.784,73.825L408.216,73.825C412.012,73.825 415.135,76.948 415.135,80.744L415.135,269.008C415.135,272.803 412.012,275.926 408.216,275.926Z" style="fill:white;fill-rule:nonzero;"/>
    <path d="M351.135,152.216L160.865,152.216C157.069,152.216 153.946,149.093 153.946,145.297C153.946,141.502 157.069,138.378 160.865,138.378L351.135,138.378C354.931,138.378 358.054,141.502 358.054,145.297C358.054,149.093 354.931,152.216 351.135,152.216Z" style="fill:white;fill-rule:nonzero;"/>
    <path d="M351.135,202.378L160.865,202.378C157.069,202.378 153.946,199.255 153.946,195.459C153.946,191.664 157.069,188.541 160.865,188.541L351.135,188.541C354.931,188.541 358.054,191.664 358.054,195.459C358.054,199.255 354.931,202.378 351.135,202.378Z" style="fill:white;fill-rule:nonzero;"/>
    <path d="M351.135,252.541L160.865,252.541C157.069,252.541 153.946,249.417 153.946,245.622C153.946,241.826 157.069,238.703 160.865,238.703L351.135,238.703C354.931,238.703 358.054,241.826 358.054,245.622C358.054,249.417 354.931,252.541 351.135,252.541Z" style="fill:white;fill-rule:nonzero;"/>
</svg>
