<?xml version="1.0" encoding="UTF-8" standalone="no"?>
<!DOCTYPE svg PUBLIC "-//W3C//DTD SVG 1.1//EN" "http://www.w3.org/Graphics/SVG/1.1/DTD/svg11.dtd">
<svg width="100%" height="100%" viewBox="0 0 512 512" version="1.1" xmlns="http://www.w3.org/2000/svg" xmlns:xlink="http://www.w3.org/1999/xlink" xml:space="preserve" xmlns:serif="http://www.serif.com/" style="fill-rule:evenodd;clip-rule:evenodd;stroke-linejoin:round;stroke-miterlimit:2;">
    <path d="M370.162,498.162L141.838,498.162C126.655,498.162 114.162,485.669 114.162,470.486L114.162,41.514C114.162,26.331 126.655,13.838 141.838,13.838L370.162,13.838C385.345,13.838 397.838,26.331 397.838,41.514L397.838,470.486C397.838,485.669 385.345,498.162 370.162,498.162ZM141.838,27.676C134.247,27.676 128,33.922 128,41.514L128,470.486C128,478.078 134.247,484.324 141.838,484.324L370.162,484.324C377.753,484.324 384,478.078 384,470.486L384,41.514C384,33.922 377.753,27.676 370.162,27.676L141.838,27.676Z" style="fill:white;fill-rule:nonzero;"/>
    <path d="M390.919,89.946L121.081,89.946C117.285,89.946 114.162,86.823 114.162,83.027C114.162,79.231 117.285,76.108 121.081,76.108L390.919,76.108C394.715,76.108 397.838,79.231 397.838,83.027C397.838,86.823 394.715,89.946 390.919,89.946Z" style="fill:white;fill-rule:nonzero;"/>
    <path d="M390.919,408.216L121.081,408.216C117.285,408.216 114.162,405.093 114.162,401.297C114.162,397.502 117.285,394.378 121.081,394.378L390.919,394.378C394.715,394.378 397.838,397.502 397.838,401.297C397.838,405.093 394.715,408.216 390.919,408.216Z" style="fill:white;fill-rule:nonzero;"/>
    <path d="M256,471.787C242.002,471.787 230.483,460.268 230.483,446.27C230.483,432.272 242.002,420.753 256,420.753C269.998,420.753 281.517,432.272 281.517,446.27C281.502,460.263 269.992,471.772 256,471.787ZM256,434.598C249.593,434.598 244.321,439.87 244.321,446.277C244.321,452.684 249.593,457.956 256,457.956C262.407,457.956 267.679,452.684 267.679,446.277C267.679,446.275 267.679,446.273 267.679,446.27C267.672,439.867 262.403,434.602 256,434.598Z" style="fill:white;fill-rule:nonzero;"/>
    <path d="M283.676,60.541L228.324,60.541C224.529,60.541 221.405,57.417 221.405,53.622C221.405,49.826 224.529,46.703 228.324,46.703L283.676,46.703C287.471,46.703 290.595,49.826 290.595,53.622C290.595,57.417 287.471,60.541 283.676,60.541Z" style="fill:white;fill-rule:nonzero;"/>
</svg>
